<svg width="14" height="18" viewBox="0 0 14 18" fill="none" xmlns="http://www.w3.org/2000/svg">
<path d="M13.3986 4.99582L13.3986 4.99584L13.4025 5.00013C13.4649 5.06883 13.4997 5.15823 13.5 5.25105C13.5 5.25116 13.5 5.25126 13.5 5.25137L13.5 15.3092C13.497 15.5333 13.4501 15.7547 13.3618 15.9608C13.2733 16.1677 13.1448 16.3551 12.9838 16.5123C12.8227 16.6696 12.6323 16.7936 12.4234 16.8772C12.2144 16.9609 11.991 17.0026 11.766 16.9999V16.9998H11.76H2.24V16.9998L2.23404 16.9999C2.00898 17.0026 1.7856 16.9609 1.57664 16.8772C1.36769 16.7936 1.17727 16.6696 1.01624 16.5123C0.855217 16.3551 0.726744 16.1677 0.63816 15.9608C0.549939 15.7547 0.503002 15.5334 0.5 15.3092V2.19075C0.503002 1.96664 0.549939 1.74529 0.63816 1.53923C0.726743 1.33233 0.855216 1.1449 1.01624 0.987655C1.17727 0.830405 1.36769 0.706414 1.57664 0.622763C1.7856 0.539111 2.00898 0.497437 2.23404 0.500122L2.23404 0.500157H2.24H8.25V1.75013V4.48883C8.23127 4.79238 8.32939 5.09196 8.52473 5.32582C8.72499 5.56556 9.01139 5.71704 9.32225 5.74766L9.34669 5.75006H9.37125H12.0225H13.1745L12.3877 4.90858L9.11522 1.40864L8.26578 0.500157H9.23928C9.29145 0.500345 9.34301 0.511417 9.39067 0.532667C9.43798 0.553767 9.48041 0.584439 9.51527 0.622742L13.3986 4.99582ZM6.37763 13.3686L7.3185 13.3755C7.40351 13.4092 7.49081 13.4326 7.5804 13.4435C7.98194 13.4926 8.2761 13.2807 8.45088 13.0293C8.61011 12.8003 8.69824 12.5088 8.75264 12.2397C8.8005 12.0029 8.82975 11.7427 8.84653 11.4822C8.86571 11.4932 8.88521 11.5041 8.90442 11.5145C8.96168 11.5453 9.05472 11.5924 9.15891 11.6178C9.24361 11.6384 9.50912 11.6854 9.72227 11.4722C9.98013 11.2144 10.125 10.8646 10.125 10.5C10.125 10.1353 9.98013 9.78556 9.72227 9.5277C9.46823 9.27367 9.12502 9.12931 8.76622 9.12508L8.76621 9.12498H8.75H8.3125H8.25V9.12865C8.24627 9.12907 8.24257 9.12952 8.23891 9.13C8.19994 9.00883 8.1663 8.90128 8.1374 8.80609L8.375 8.75C8.375 8.45962 8.28314 8.1787 8.11552 7.94611C8.09992 7.89251 8.0771 7.84488 8.05161 7.80481C7.95701 7.6561 7.81357 7.58908 7.76887 7.56837C7.70332 7.53799 7.62966 7.51357 7.5597 7.49408C7.3852 7.41632 7.19473 7.37502 7 7.37502H6.99872C6.98502 7.37501 6.94552 7.37499 6.90431 7.38049C6.89188 7.38215 6.8662 7.38595 6.83496 7.39452C6.81903 7.39889 6.79407 7.40655 6.76485 7.4194C6.73846 7.43102 6.68869 7.45543 6.63668 7.50086C6.60642 7.52729 6.56754 7.56798 6.5344 7.62415C5.51731 7.64672 4.71216 7.9175 4.13172 8.37117C3.45583 8.89944 3.12937 9.64282 3.12346 10.3951C3.11166 11.897 4.3612 13.3539 6.37763 13.3686ZM6.931 11.6727C6.81411 11.5131 6.6867 11.3263 6.54831 11.1088C6.58509 11.0887 6.62429 11.0634 6.66085 11.0321C6.69355 11.004 6.77041 10.9325 6.81554 10.815C6.82822 10.8092 6.84088 10.8035 6.85352 10.7977C6.85478 10.8122 6.85604 10.8267 6.8573 10.8412C6.88225 11.1283 6.90687 11.4116 6.931 11.6727ZM5.28871 11.7262C5.39227 11.9281 5.486 12.1083 5.55604 12.2422C5.15126 12.1124 4.83021 11.892 4.59551 11.6252C4.65622 11.6329 4.70908 11.63 4.74412 11.6267C4.82119 11.6194 4.89836 11.6008 4.96166 11.5831C5.02759 11.5647 5.10115 11.5407 5.1797 11.5128C5.21692 11.586 5.25344 11.6575 5.28871 11.7262ZM6.67522 8.95547C6.68332 9.0215 6.69141 9.09086 6.69947 9.16306C6.62976 9.15817 6.55798 9.15319 6.48406 9.14812C6.54435 9.07112 6.60008 8.96772 6.61856 8.84007C6.63024 8.83513 6.64356 8.83009 6.65859 8.825C6.66407 8.86627 6.66962 8.90979 6.67522 8.95547Z" stroke="white"/>
<rect x="2" y="6.5" width="10" height="9.4" fill="#191F28"/>
<path d="M8.97767 8.02994C9.02216 8.05476 9.05658 8.09337 9.07532 8.13946C9.09407 8.18554 9.09601 8.23639 9.08085 8.28368L8.26224 10.8438H9.77264C9.81703 10.8438 9.86045 10.8563 9.89755 10.8797C9.93464 10.9032 9.96378 10.9366 9.98138 10.9758C9.99898 11.015 10.0043 11.0584 9.99656 11.1004C9.98887 11.1425 9.96854 11.1815 9.93809 11.2126L6.30186 14.9311C6.26668 14.9671 6.21986 14.9906 6.16904 14.9977C6.11821 15.0048 6.06638 14.9952 6.02199 14.9703C5.97761 14.9455 5.94327 14.9069 5.9246 14.8608C5.90592 14.8148 5.904 14.764 5.91915 14.7167L6.73775 12.1562H5.22736C5.18297 12.1562 5.13955 12.1437 5.10245 12.1203C5.06536 12.0968 5.03622 12.0634 5.01862 12.0242C5.00102 11.985 4.99575 11.9416 5.00344 11.8996C5.01113 11.8575 5.03146 11.8185 5.06191 11.7874L8.69814 8.06888C8.73328 8.03292 8.78003 8.00945 8.83078 8.00231C8.88153 7.99516 8.9333 8.00518 8.97767 8.02994Z" fill="white"/>
</svg>
