<svg viewBox="0 0 15 15" xmlns="http://www.w3.org/2000/svg">
<path d="M10.7509 0.0641605C10.8488 0.11735 10.9245 0.200081 10.9657 0.298839C11.0069 0.397596 11.0112 0.506543 10.9779 0.60788L9.17694 6.09382H12.4998C12.5975 6.09378 12.693 6.12055 12.7746 6.17083C12.8562 6.22111 12.9203 6.29269 12.959 6.37673C12.9977 6.46078 13.0094 6.55361 12.9924 6.64377C12.9755 6.73393 12.9308 6.81748 12.8638 6.88409L4.8641 14.8524C4.78669 14.9295 4.68369 14.9799 4.57188 14.9951C4.46007 15.0104 4.34604 14.9897 4.24839 14.9364C4.15073 14.8831 4.0752 14.8004 4.03412 14.7017C3.99303 14.6031 3.9888 14.4942 4.02213 14.393L5.82306 8.90616H2.50018C2.40253 8.90619 2.307 8.87942 2.2254 8.82915C2.14379 8.77887 2.07967 8.70729 2.04096 8.62324C2.00225 8.5392 1.99064 8.44636 2.00757 8.3562C2.02449 8.26604 2.06921 8.1825 2.13619 8.11589L10.1359 0.147593C10.2132 0.0705343 10.3161 0.0202585 10.4277 0.00494062C10.5394 -0.0103773 10.6533 0.0101634 10.7509 0.063223V0.0641605Z" />
</svg>