<svg viewBox="0 0 15 17" xmlns="http://www.w3.org/2000/svg">
<path d="M8.70548 13.8171L11.9464 10.6907L11.9464 10.6907C12.0122 10.6272 12.0901 10.5772 12.1753 10.5431C12.2606 10.509 12.3518 10.4916 12.4438 10.4916C12.5358 10.4916 12.627 10.509 12.7123 10.5431C12.7976 10.5772 12.8754 10.6272 12.9412 10.6907C13.007 10.7542 13.0596 10.8298 13.0955 10.9135C13.1314 10.9971 13.15 11.087 13.15 11.1779C13.15 11.2688 13.1314 11.3587 13.0955 11.4424C13.0596 11.526 13.007 11.6017 12.9412 11.6652L8.49754 15.9505C8.49752 15.9505 8.4975 15.9505 8.49747 15.9505L8.4974 15.9506L8.39328 15.8426C8.34168 15.8925 8.28038 15.9321 8.2129 15.9591C8.14541 15.9861 8.07306 16 8 16C7.92694 16 7.85459 15.9861 7.7871 15.9591C7.71962 15.9321 7.65832 15.8925 7.60672 15.8426L8.70548 13.8171ZM8.70548 13.8171V1.53568C8.70548 1.35203 8.62978 1.17706 8.49691 1.04892C8.36422 0.920966 8.18538 0.849999 8 0.849999C7.81462 0.849999 7.63578 0.920966 7.50309 1.04892C7.37022 1.17706 7.29452 1.35203 7.29452 1.53568L7.29452 13.8171L4.0536 10.6907L4.05358 10.6907C3.98777 10.6272 3.90994 10.5772 3.82466 10.5431C3.73939 10.509 3.64818 10.4916 3.55618 10.4916C3.46418 10.4916 3.37297 10.509 3.2877 10.5431C3.20242 10.5772 3.12458 10.6272 3.05878 10.6907C2.99296 10.7542 2.94044 10.8298 2.90451 10.9135C2.86857 10.9971 2.85 11.087 2.85 11.1779C2.85 11.2688 2.86857 11.3587 2.90451 11.4424C2.94044 11.526 2.99296 11.6017 3.05878 11.6652L7.50246 15.9505C7.50248 15.9505 7.5025 15.9505 7.50252 15.9505L8.70548 13.8171Z" stroke-width="0.3"/>
</svg>
