<svg viewBox="0 0 20 18" fill="none" xmlns="http://www.w3.org/2000/svg">
<path fill-rule="evenodd" clip-rule="evenodd" d="M0 1.75C0 0.784 0.784 0 1.75 0H6.721C7.301 0 7.841 0.286 8.168 0.765L9.572 2.828C9.59488 2.86186 9.62572 2.88959 9.66181 2.90877C9.6979 2.92794 9.73813 2.93798 9.779 2.938H18.25C19.216 2.938 20 3.721 20 4.688V16.25C20 16.7141 19.8156 17.1592 19.4874 17.4874C19.1592 17.8156 18.7141 18 18.25 18H1.75C1.28587 18 0.840752 17.8156 0.512563 17.4874C0.184375 17.1592 0 16.7141 0 16.25V1.75Z" />
</svg>
