<svg width="32" height="32" viewBox="0 0 32 32" fill="none" xmlns="http://www.w3.org/2000/svg">
<path opacity="0.9" d="M17.1374 6C11.6886 6 7.28571 10.4778 7.28571 16H4L8.26595 20.3278L8.34262 20.4889L12.7619 16H9.47619C9.47619 11.7056 12.9098 8.22222 17.1429 8.22222C21.376 8.22222 24.8095 11.7056 24.8095 16C24.8095 20.2944 21.376 23.7778 17.1429 23.7778C15.0236 23.7778 13.1124 22.9 11.7269 21.4944L10.1771 23.0667C11.9569 24.8778 14.4157 26 17.1374 26C22.5862 26 27 21.5222 27 16C27 10.4778 22.5862 6 17.1374 6ZM16.0476 11.5556V17.1111L20.7352 19.9333L21.5238 18.5833L17.6905 16.2778V11.5556H16.0476Z" fill="white"/>
</svg>
