<svg viewBox="0 0 15 17" xmlns="http://www.w3.org/2000/svg">
<path d="M7.29452 3.18289L4.0536 6.3093L4.05358 6.30931C3.98777 6.37278 3.90994 6.42284 3.82466 6.45691C3.73939 6.49097 3.64818 6.50844 3.55618 6.50844C3.46418 6.50844 3.37297 6.49097 3.2877 6.45691C3.20242 6.42284 3.12458 6.37278 3.05878 6.30931C2.99296 6.24584 2.94044 6.17019 2.90451 6.08653C2.86857 6.00286 2.85 5.91298 2.85 5.82208C2.85 5.73117 2.86857 5.6413 2.90451 5.55762C2.94044 5.47397 2.99296 5.39832 3.05878 5.33484L7.50246 1.04954C7.50248 1.04951 7.5025 1.04949 7.50253 1.04947L7.5026 1.0494L7.60672 1.15738C7.65832 1.10749 7.71962 1.06791 7.7871 1.04091C7.85459 1.0139 7.92694 1 8 1C8.07306 1 8.14541 1.0139 8.2129 1.04091C8.28038 1.06791 8.34168 1.10749 8.39328 1.15738L7.29452 3.18289ZM7.29452 3.18289L7.29452 15.4643C7.29452 15.648 7.37022 15.8229 7.50309 15.9511C7.63578 16.079 7.81462 16.15 8 16.15C8.18538 16.15 8.36422 16.079 8.49691 15.9511C8.62978 15.8229 8.70548 15.648 8.70548 15.4643L8.70548 3.18289L11.9464 6.3093L11.9464 6.30931C12.0122 6.37278 12.0901 6.42284 12.1753 6.45691C12.2606 6.49097 12.3518 6.50844 12.4438 6.50844C12.5358 6.50844 12.627 6.49097 12.7123 6.45691C12.7976 6.42284 12.8754 6.37278 12.9412 6.30931C13.007 6.24584 13.0596 6.17019 13.0955 6.08653C13.1314 6.00286 13.15 5.91298 13.15 5.82208C13.15 5.73117 13.1314 5.64129 13.0955 5.55762C13.0596 5.47397 13.007 5.39832 12.9412 5.33484L8.49754 1.04954C8.49752 1.04951 8.4975 1.04949 8.49748 1.04947L7.29452 3.18289Z" stroke="white" stroke-width="0.3"/>
</svg>
