<svg viewBox="0 0 18 18" xmlns="http://www.w3.org/2000/svg">
<path d="M0.400505 6.22951C0.794221 5.02118 1.43995 3.91019 2.295 2.97001C2.3658 2.89237 2.45798 2.83742 2.55995 2.81206C2.66191 2.78671 2.76909 2.79208 2.868 2.82751L4.90801 3.55351C5.05291 3.60488 5.20723 3.62426 5.36034 3.61033C5.51345 3.5964 5.66174 3.54948 5.795 3.47281C5.92825 3.39613 6.04333 3.29151 6.13232 3.16613C6.22131 3.04076 6.2821 2.8976 6.31051 2.74651L6.70051 0.622506C6.71953 0.519269 6.76872 0.423986 6.84188 0.348697C6.91503 0.273408 7.00886 0.221491 7.11151 0.199506C8.35764 -0.0648336 9.64537 -0.0648336 10.8915 0.199506C11.1015 0.244506 11.2635 0.411006 11.3025 0.622506L11.6925 2.74651C11.7204 2.89785 11.7809 3.04132 11.8698 3.16697C11.9587 3.29262 12.0738 3.39746 12.2072 3.47421C12.3406 3.55097 12.4891 3.59782 12.6424 3.61151C12.7957 3.6252 12.9501 3.60541 13.095 3.55351L15.135 2.82751C15.2339 2.79208 15.3411 2.78671 15.4431 2.81206C15.545 2.83742 15.6372 2.89237 15.708 2.97001C16.5615 3.91051 17.208 5.02051 17.601 6.22951C17.6335 6.32941 17.6354 6.43673 17.6065 6.53773C17.5777 6.63873 17.5193 6.72883 17.439 6.79651L15.786 8.19301C15.6683 8.29199 15.5737 8.41551 15.5088 8.55491C15.4439 8.69432 15.4103 8.84623 15.4103 9.00001C15.4103 9.15378 15.4439 9.30569 15.5088 9.4451C15.5737 9.5845 15.6683 9.70802 15.786 9.80701L17.439 11.2035C17.604 11.343 17.667 11.5665 17.601 11.7705C17.2078 12.9787 16.5626 14.0897 15.708 15.03C15.6372 15.1076 15.545 15.1626 15.4431 15.1879C15.3411 15.2133 15.2339 15.2079 15.135 15.1725L13.095 14.4465C12.9501 14.3951 12.7958 14.3758 12.6427 14.3897C12.4896 14.4036 12.3413 14.4505 12.208 14.5272C12.0748 14.6039 11.9597 14.7085 11.8707 14.8339C11.7817 14.9593 11.7209 15.1024 11.6925 15.2535L11.3025 17.3775C11.2836 17.481 11.2342 17.5765 11.1607 17.6519C11.0873 17.7272 10.993 17.779 10.89 17.8005C9.64437 18.0648 8.35714 18.0648 7.11151 17.8005C7.00858 17.7788 6.91443 17.727 6.84099 17.6517C6.76755 17.5764 6.71813 17.4809 6.69901 17.3775L6.31051 15.2535C6.28257 15.1022 6.22207 14.9587 6.13319 14.833C6.04432 14.7074 5.9292 14.6026 5.7958 14.5258C5.66241 14.449 5.51392 14.4022 5.36063 14.3885C5.20733 14.3748 5.05289 14.3946 4.90801 14.4465L2.868 15.1725C2.76909 15.2079 2.66191 15.2133 2.55995 15.1879C2.45798 15.1626 2.3658 15.1076 2.295 15.03C1.44049 14.0897 0.795276 12.9787 0.402005 11.7705C0.369542 11.6706 0.367617 11.5633 0.396475 11.4623C0.425333 11.3613 0.483663 11.2712 0.564005 11.2035L2.217 9.80701C2.33446 9.70788 2.42886 9.58431 2.49361 9.44492C2.55836 9.30554 2.59191 9.1537 2.59191 9.00001C2.59191 8.84631 2.55836 8.69447 2.49361 8.55509C2.42886 8.4157 2.33446 8.29213 2.217 8.19301L0.564005 6.79651C0.483663 6.72883 0.425333 6.63873 0.396475 6.53773C0.367617 6.43673 0.369542 6.32941 0.402005 6.22951H0.400505ZM6.37501 9.00001C6.37501 9.6962 6.65157 10.3639 7.14385 10.8562C7.63613 11.3484 8.30381 11.625 9.00001 11.625C9.6962 11.625 10.3639 11.3484 10.8562 10.8562C11.3484 10.3639 11.625 9.6962 11.625 9.00001C11.625 8.30381 11.3484 7.63613 10.8562 7.14385C10.3639 6.65157 9.6962 6.37501 9.00001 6.37501C8.30381 6.37501 7.63613 6.65157 7.14385 7.14385C6.65157 7.63613 6.37501 8.30381 6.37501 9.00001V9.00001Z" />
</svg>

